<svg width="100" height="100" viewBox="0 0 100 100" fill="none" xmlns="http://www.w3.org/2000/svg">
<path d="M0.781934 60.2213L17.6439 32H27.6004L13.1474 56.3946H19.2586L28.1269 41.5665H37.5047L25.0309 63.0913C22.4616 67.5556 17.6439 67.5556 15.5562 67.5556H6.40258C-0.0210126 67.5556 -0.984546 63.2506 0.781934 60.2213Z" fill="white"/>
<path d="M38.3142 67.5556H29L45.8344 39.0155H40.0531L44.0953 32H70.6951L66.388 39.0155H55.3073L38.3142 67.5556Z" fill="white"/>
<path d="M65.8613 43.7986H58.5695L52.8517 53.3653H60.1437L65.8613 43.7986Z" fill="white"/>
<path d="M71.4413 55.9162L72.8867 61.6563L90.2456 32H100L79.1498 67.5556H65.528L62.6089 55.9162H71.4413Z" fill="white"/>
</svg>
