<svg width="100" height="40" viewBox="0 0 100 40" fill="none" xmlns="http://www.w3.org/2000/svg">
<path d="M0.781934 30.2213L17.6439 2H27.6004L13.1474 26.3946H19.2586L28.1269 11.5665H37.5047L25.0309 33.0913C22.4616 37.5556 17.6439 37.5556 15.5562 37.5556H6.40258C-0.0210126 37.5556 -0.984546 33.2506 0.781934 30.2213Z" fill="#3AB54B"/>
<path d="M40.2871 37.5556H30.9729L47.8073 9.01549H42.026L46.0682 2H72.668L68.3609 9.01549H57.2802L40.2871 37.5556Z" fill="#3AB54B"/>
<path d="M65.8613 13.7986H58.5695L52.8517 23.3653H60.1437L65.8613 13.7986Z" fill="#3AB54B"/>
<path d="M71.4413 25.9162L72.8867 31.6563L90.2456 2H100L79.1498 37.5556H65.528L62.6089 25.9162H71.4413Z" fill="#3AB54B"/>
</svg>
